<svg width="222" height="222" viewBox="0 0 222 222" fill="none" xmlns="http://www.w3.org/2000/svg">
<path d="M117.084 91.2573C117.136 91.1396 117.055 91.0563 117.007 90.9653C115.434 88.0013 113.86 85.0379 112.288 82.0739C112.085 81.6929 112.083 81.6828 111.694 81.8978C110.076 82.7927 108.677 83.9598 107.423 85.3134C105.736 87.1356 104.536 89.2791 103.377 91.4449C101.965 94.0851 100.616 96.7604 99.2137 99.4064C98.3455 101.044 97.427 102.657 96.1848 104.05C95.2734 105.072 94.2201 105.944 93.1381 106.779C91.8699 107.758 90.5246 108.619 89.1062 109.364C89.0509 109.393 88.9898 109.412 88.9313 109.436C88.9243 109.352 88.9109 109.268 88.9122 109.184C88.9326 107.97 88.647 106.833 88.0841 105.757C87.9333 105.47 87.7234 105.215 87.6236 104.901C87.9263 104.708 88.2285 104.514 88.5312 104.322C90.0915 103.328 91.5703 102.223 92.801 100.838C93.7971 99.7167 94.4929 98.3823 95.1983 97.0663C97.0085 93.6895 98.6572 90.2281 100.579 86.9086C102.823 83.0325 105.728 79.8299 109.707 77.6826C109.915 77.5707 109.887 77.4759 109.802 77.3163C109.513 76.775 109.219 76.235 108.95 75.6829C108.847 75.4717 108.746 75.4679 108.558 75.5589C106.382 76.6128 104.373 77.9212 102.559 79.5189C101.202 80.7134 100.1 82.1439 98.9453 83.5241C97.9111 84.7606 96.847 85.9704 95.571 86.9677C93.4511 88.6234 91.0265 89.6296 88.4301 90.2472C86.485 90.7096 84.5082 90.9176 82.5097 90.9125C82.275 90.9125 82.1427 90.9659 82.0797 91.2127C81.9366 91.7731 81.7649 92.3258 81.6065 92.8817C81.3477 93.79 81.3031 94.725 81.244 95.66C81.1645 96.9124 81.2166 98.1571 81.3693 99.4013C81.4768 100.275 81.686 101.128 81.8584 101.988C81.5436 102.017 81.2268 102.033 80.9145 102.076C79.1374 102.324 77.677 103.148 76.4952 104.494C76.0805 104.966 75.7841 105.512 75.4425 106.03C75.3083 105.914 75.1773 105.795 75.0387 105.686C74.8574 105.544 74.7327 105.322 74.4796 105.278C74.4382 105.163 74.3447 105.091 74.2589 105.014C73.0554 103.921 71.8533 102.826 70.648 101.736C70.0921 101.233 69.5304 100.737 68.9701 100.239C68.895 100.172 68.8174 100.054 68.7017 100.142C68.3779 100.388 68.0243 100.601 67.7756 100.935C67.6643 100.913 67.6007 100.993 67.5282 101.052C65.1767 102.956 62.8239 104.857 60.4762 106.766C60.1162 107.059 59.7295 107.325 59.3721 107.723C59.5451 107.723 59.6494 107.723 59.7531 107.723C63.0459 107.722 66.3387 107.721 69.6322 107.72C69.7372 107.72 69.8427 107.706 69.9477 107.699C71.5671 107.736 73.1871 107.722 74.8065 107.706C74.8351 107.715 74.8637 107.724 74.8924 107.734C74.7702 108.68 74.7448 109.622 74.9464 110.565C75.0495 111.048 75.2594 111.496 75.3605 111.979C75.1525 112.049 74.921 111.927 74.7206 112.059C74.0833 111.968 73.4422 112.014 72.8029 112.012C71.8132 112.009 70.8235 112.024 69.8338 112.031C69.6907 111.973 69.5406 112.001 69.3937 112.001C63.8403 112 58.287 111.999 52.7336 112.006C52.4982 112.006 52.3723 111.934 52.275 111.719C51.922 110.938 51.562 110.159 51.1784 109.392C51.057 109.149 51.111 109.034 51.3037 108.873C53.4046 107.126 55.4991 105.372 57.5924 103.616C59.7912 101.772 61.9907 99.9298 64.1806 98.0751C64.4637 97.8353 64.8097 97.6547 64.996 97.3093C65.0437 97.2908 65.101 97.2826 65.1385 97.2514C65.8095 96.691 66.4844 96.1339 67.1433 95.5589C67.2833 95.4367 67.413 95.3871 67.5918 95.3846C68.3067 95.3725 69.0222 95.3483 69.7372 95.328C69.7575 95.3343 69.7791 95.3502 69.797 95.3464C70.4196 95.2186 70.8089 95.59 71.223 95.9691C73.0186 97.6127 74.83 99.2391 76.6371 100.87C76.7045 100.931 76.7604 101.017 76.8927 101.025C76.819 100.423 76.7375 99.8306 76.6746 99.2359C76.4939 97.523 76.5175 95.8101 76.7159 94.1004C76.9086 92.4333 77.2839 90.8069 77.8436 89.2244C77.8971 89.0731 77.8627 88.9687 77.7839 88.8453C75.9616 85.9901 74.1425 83.1336 72.3233 80.2765C72.2496 80.1607 72.1866 80.0386 72.1192 79.9196C72.2305 79.8605 72.3373 79.7912 72.4537 79.7434C73.2488 79.4203 73.9752 78.9885 74.6379 78.4395C74.8167 78.292 74.935 78.0426 75.211 78.0248C75.4915 78.3314 75.676 78.7035 75.8973 79.0489C77.3412 81.305 78.7799 83.5642 80.211 85.8286C80.377 86.0912 80.5628 86.2305 80.8891 86.2401C83.238 86.3107 85.5704 86.2165 87.8538 85.5938C89.7416 85.0786 91.5188 84.3307 93.0173 83.035C93.9892 82.1948 94.8148 81.2127 95.6346 80.2268C96.7719 78.8593 97.8825 77.4651 99.2105 76.2712C101.309 74.3853 103.619 72.8098 106.157 71.5721C106.676 71.3189 106.672 71.3272 106.407 70.819C105.378 68.8485 104.355 66.8742 103.323 64.9056C103.242 64.7511 103.232 64.6175 103.283 64.4566C103.563 63.5686 103.84 62.6794 104.111 61.7883C104.155 61.644 104.22 61.5587 104.377 61.5206C106.276 61.0531 108.174 60.5798 110.072 60.1085C110.092 60.1034 110.114 60.1098 110.135 60.1104C110.153 60.6772 110.17 61.242 110.467 61.7559C110.703 62.1636 111.026 62.4842 111.398 62.7628C110.507 63.3098 109.62 63.865 108.721 64.3981C108.486 64.5367 108.422 64.6372 108.563 64.9024C109.049 65.8158 109.504 66.7476 110.001 67.6534C111.691 70.737 113.304 73.8625 114.962 76.9626C116.095 79.0807 117.213 81.2057 118.339 83.3276C119.291 85.1213 120.242 86.9156 121.195 88.708C121.248 88.8065 121.271 88.9325 121.399 88.9757C121.425 89.0552 121.439 89.1405 121.477 89.2136C122.068 90.335 122.657 91.4576 123.26 92.572C123.394 92.8194 123.47 93.1044 123.693 93.2996C123.651 93.4046 123.716 93.4828 123.76 93.5655C124.803 95.529 125.846 97.4918 126.888 99.456C128.367 102.243 129.842 105.033 131.325 107.818C131.432 108.018 131.455 108.127 131.219 108.258C129.998 108.937 128.787 109.634 127.576 110.329C127.407 110.427 127.328 110.395 127.238 110.219C126.826 109.418 126.398 108.627 125.976 107.831C123.874 103.877 121.773 99.9209 119.669 95.9679C119.592 95.8235 119.55 95.646 119.375 95.571C119.393 95.4565 119.327 95.3681 119.279 95.2758C118.846 94.4547 118.422 93.6285 117.975 92.8149C117.687 92.2908 117.466 91.7279 117.087 91.256L117.084 91.2573Z" fill="white"/>
<path fill-rule="evenodd" clip-rule="evenodd" d="M70.7232 112.024C70.4262 112.027 70.1293 112.03 69.8323 112.032V112.033C69.1454 116.233 67.1952 119.734 63.9577 122.494C61.3327 124.732 58.2886 126.065 54.8558 126.426C49.6771 126.969 45.1268 125.481 41.2895 121.967C38.431 119.349 36.6889 116.083 36.0497 112.252C35.4429 108.619 35.9396 105.125 37.5953 101.84C39.6962 97.6697 42.9597 94.733 47.3975 93.2619C52.9559 91.4192 58.1773 92.2499 62.9846 95.607C63.7071 96.1114 64.3553 96.7061 64.9945 97.3103C65.0093 97.3046 65.0251 97.2998 65.041 97.295C65.0759 97.2845 65.1111 97.2739 65.137 97.2524C65.2672 97.1436 65.3976 97.0348 65.528 96.9261C66.0694 96.4747 66.6107 96.0233 67.1418 95.5599C67.2824 95.4378 67.4115 95.3888 67.5902 95.3856C68.1015 95.377 68.6125 95.3619 69.1234 95.3467C69.3275 95.3407 69.5315 95.3346 69.7356 95.329C69.2331 94.6847 68.669 94.097 68.073 93.5404C63.5704 89.3361 58.2371 87.2951 52.0814 87.4992C47.0585 87.6659 42.5597 89.3559 38.7771 92.6538C32.4801 98.1442 29.9735 105.116 31.3244 113.35C32.2213 118.817 34.9792 123.315 39.3622 126.698C45.2018 131.206 51.785 132.527 58.8884 130.547C65.5103 128.701 70.1955 124.472 73.0469 118.227C73.9412 116.269 74.485 114.203 74.7191 112.06C74.2471 111.993 73.7731 112.001 73.2992 112.008C73.1332 112.011 72.9672 112.014 72.8014 112.013C72.1086 112.011 71.4159 112.018 70.7232 112.024ZM117.729 92.3434C117.54 91.9664 117.351 91.5892 117.085 91.2571L117.084 91.2577C116.038 91.9313 115.071 92.7086 114.193 93.5844C108.859 98.905 106.575 105.332 107.718 112.771C108.878 120.316 113.063 125.821 119.888 129.225C124.236 131.393 128.876 131.954 133.63 130.982C140.341 129.608 145.39 125.869 148.71 119.877C150.898 115.929 151.699 111.666 151.238 107.179C150.744 102.377 148.882 98.1595 145.599 94.6263C140.972 89.6466 135.217 87.2824 128.418 87.5006C125.994 87.5782 123.654 88.0883 121.396 88.9769C121.404 89.0019 121.411 89.0277 121.418 89.0534C121.433 89.1092 121.449 89.1651 121.475 89.2147C121.558 89.3726 121.641 89.5306 121.724 89.6885C122.232 90.6521 122.739 91.6156 123.257 92.5731C123.296 92.6439 123.33 92.7179 123.363 92.7919C123.447 92.9764 123.531 93.1614 123.691 93.3007C129.719 91.362 135.274 92.2627 140.231 96.224C143.638 98.9476 145.682 102.553 146.299 106.871C147.105 112.506 145.493 117.433 141.506 121.497C138.455 124.607 134.685 126.276 130.321 126.51C122.658 126.921 115.617 122.271 113.238 114.986C111.072 108.35 112.514 102.414 117.324 97.3269C117.944 96.6718 118.647 96.1083 119.372 95.5721C119.387 95.4769 119.344 95.3997 119.301 95.3233C119.293 95.3079 119.284 95.2925 119.276 95.2769C119.169 95.0733 119.062 94.8694 118.956 94.6656C118.632 94.0467 118.309 93.428 117.973 92.8161C117.887 92.6608 117.808 92.5021 117.729 92.3434Z" fill="url(#paint0_linear_202_29)"/>
<path fill-rule="evenodd" clip-rule="evenodd" d="M110.473 61.7573C110.708 62.165 111.032 62.4856 111.404 62.7641V62.7635C111.436 62.7762 111.469 62.7885 111.501 62.8008C111.566 62.8254 111.632 62.85 111.696 62.878C112.283 63.1331 112.888 63.1693 113.495 62.9874C114.709 62.6248 115.43 61.5003 115.307 60.1964C115.198 59.0362 114.188 58.0478 112.999 57.9378C111.761 57.8227 110.642 58.5713 110.269 59.7588C110.258 59.7936 110.251 59.8299 110.243 59.8662C110.226 59.954 110.208 60.0421 110.141 60.1118L110.141 60.1151C110.159 60.6813 110.177 61.2443 110.473 61.7573ZM75.2132 78.0256C75.0175 78.0382 74.9007 78.167 74.7859 78.2936C74.7388 78.3456 74.692 78.3972 74.6402 78.4403C73.9774 78.9892 73.251 79.4211 72.456 79.7442C72.3769 79.7762 72.3022 79.8188 72.2275 79.8613L72.2274 79.8613L72.2274 79.8613C72.1922 79.8814 72.157 79.9014 72.1214 79.9204C71.864 79.9746 71.6111 80.0464 71.3581 80.1182C71.0326 80.2105 70.7072 80.3029 70.3723 80.358C68.1397 80.725 65.9778 80.58 63.9647 79.4421C62.718 78.738 61.853 77.7044 61.3829 76.3413C61.292 76.078 61.3378 75.9902 61.6068 75.9113C63.8537 75.2507 66.0982 74.582 68.3428 73.9133L68.3431 73.9132L68.3477 73.9118C69.1419 73.6752 69.9361 73.4386 70.7304 73.2024C71.389 73.0065 72.0476 72.8102 72.7061 72.6138C74.5709 72.0578 76.4358 71.5018 78.3038 70.9565C79.4341 70.6264 80.5605 70.6022 81.6412 71.1645C82.2429 71.4774 82.6773 71.9557 82.9896 72.5549C83.0857 72.74 83.0596 72.8176 82.8516 72.8869C82.3628 73.0508 81.876 73.2206 81.3892 73.3903L81.3891 73.3903C80.6273 73.6559 79.8655 73.9214 79.0963 74.1647C77.9381 74.5311 77.1513 75.3243 76.4796 76.2758C76.1069 76.8037 75.7291 77.3272 75.2915 77.8042L75.2878 77.8083C75.2293 77.8716 75.1746 77.9309 75.2132 78.0256ZM75.4458 106.031C75.5401 105.888 75.6309 105.743 75.7217 105.598C75.96 105.218 76.1982 104.837 76.4985 104.496C77.6803 103.15 79.1407 102.325 80.9178 102.078C81.1335 102.048 81.3508 102.031 81.5683 102.014L81.5686 102.014C81.6665 102.006 81.7644 101.999 81.8623 101.99C81.8816 101.992 81.9009 101.995 81.9201 101.998C81.9636 102.005 82.0069 102.011 82.0506 102.013C83.953 102.088 85.5724 102.801 86.9215 104.145C87.0134 104.237 87.0934 104.339 87.1733 104.441L87.1733 104.441C87.307 104.612 87.4403 104.783 87.6281 104.902C87.693 105.105 87.8036 105.283 87.9141 105.461L87.9142 105.461C87.9748 105.559 88.0355 105.656 88.0886 105.758C88.6522 106.833 88.9371 107.971 88.9168 109.185C88.9159 109.241 88.9219 109.297 88.9278 109.352C88.9308 109.38 88.9337 109.408 88.9359 109.437C88.8354 110.454 88.6274 111.446 88.1255 112.349C86.7682 114.791 84.6839 116.125 81.8916 116.141C79.1419 116.156 77.0582 114.879 75.6608 112.503C75.5938 112.389 75.5293 112.275 75.4647 112.16L75.4647 112.16C75.4312 112.1 75.3977 112.04 75.3638 111.981C75.3129 111.738 75.2345 111.504 75.156 111.27L75.156 111.27C75.0785 111.039 75.0009 110.807 74.9497 110.567C74.7487 109.624 74.7735 108.682 74.8957 107.736C75.0197 107.149 75.2302 106.59 75.4452 106.032L75.4458 106.031Z" fill="url(#paint1_linear_202_29)"/>
<path d="M69.946 107.701C69.6859 105.297 68.9646 103.041 67.7739 100.937C68.022 100.602 68.3763 100.39 68.7 100.143C68.8158 100.055 68.8927 100.173 68.9684 100.24C69.5288 100.738 70.0904 101.234 70.6463 101.737C71.8517 102.828 73.0544 103.922 74.2572 105.015C74.3431 105.093 74.4366 105.165 74.4779 105.28C74.6541 106.08 74.7552 106.89 74.8048 107.707C73.1855 107.723 71.5654 107.737 69.946 107.701Z" fill="#404040"/>
<path d="M173.905 136.113C173.437 136.634 173.177 136.886 172.958 137.172C169.392 141.85 165.804 146.511 162.294 151.228C161.543 152.237 160.72 152.657 159.487 152.682C145.439 152.982 131.39 153.341 117.342 153.621C115.941 153.649 115.274 153.918 114.877 155.456C113.577 160.498 108.336 163.845 103.173 163.176C97.6234 162.456 93.598 157.988 93.4775 152.411C93.3627 147.127 97.1556 142.435 102.302 141.486C107.82 140.469 113.008 143.435 114.809 148.746C115.176 149.833 115.658 150.262 116.787 150.128C117.695 150.018 118.619 150.069 119.812 150.041C119.496 148.766 119.303 147.727 118.983 146.727C115.624 136.202 103.627 132.295 94.7577 138.824C93.4803 139.763 92.4158 139.771 91.6763 138.844C90.9031 137.872 91.1973 136.796 92.5195 135.774C102.201 128.289 116.361 131.844 121.597 143.124C122.109 144.231 122.681 144.617 123.897 144.584C136.685 144.25 149.475 143.965 162.263 143.699C163.185 143.679 163.804 143.418 164.37 142.656C166.936 139.214 169.588 135.835 172.143 132.381C172.471 131.936 172.628 131.146 172.493 130.608C169.527 118.703 166.499 106.811 163.518 94.9086C163.297 94.0206 162.924 93.5555 161.997 93.4071C160.664 93.1942 159.347 92.858 158.028 92.5583C156.683 92.2529 156.03 91.421 156.263 90.3341C156.484 89.3004 157.355 88.8242 158.683 89.0931C160.605 89.4797 162.507 89.9643 164.434 90.3033C165.686 90.5246 166.235 91.2333 166.527 92.4042C168.364 99.7856 170.241 107.156 172.104 114.529C173.317 119.325 174.499 124.126 175.751 128.913C176.799 132.916 177.967 136.889 178.984 140.9C179.23 141.869 179.625 142.144 180.581 142.18C185.424 142.365 189.422 145.668 190.685 150.436C191.875 154.926 189.909 159.865 185.934 162.369C180.757 165.633 173.863 164.064 170.709 158.91C167.513 153.682 169.104 146.864 174.365 143.757C175.463 143.108 175.611 142.525 175.275 141.427C174.771 139.788 174.412 138.104 173.911 136.115L173.905 136.113ZM176.485 146.354C172.93 148.08 171.404 152.279 172.813 155.929C174.239 159.629 178.457 161.705 182.205 160.551C186.11 159.347 188.52 155.327 187.648 151.475C186.844 147.929 183.292 145.06 180.113 145.553C180.623 147.774 181.135 149.985 181.634 152.198C181.939 153.551 181.483 154.548 180.469 154.811C179.427 155.083 178.589 154.453 178.2 153.094C178.085 152.691 177.998 152.279 177.894 151.873C177.438 150.074 176.978 148.279 176.485 146.354ZM111.823 153.85C111.235 153.836 110.733 153.806 110.229 153.814C108.408 153.845 106.59 153.909 104.769 153.918C103.489 153.923 102.635 153.206 102.691 152.158C102.753 150.965 103.531 150.441 104.646 150.396C106.139 150.335 107.632 150.318 109.125 150.284C109.983 150.265 110.843 150.245 111.725 150.226C111.137 146.702 107.391 144.18 103.624 144.533C99.688 144.903 96.5813 148.394 96.671 152.346C96.7634 156.43 99.9709 159.798 103.963 159.999C107.82 160.195 111.417 157.481 111.82 153.856L111.823 153.85Z" fill="white"/>
<circle cx="104.48" cy="152.429" r="9.50845" stroke="url(#paint2_linear_202_29)" stroke-width="3.21656"/>
<circle cx="179.914" cy="152.957" r="9.50845" stroke="url(#paint3_linear_202_29)" stroke-width="3.21656"/>
<rect x="108.5" y="150.281" width="12.0699" height="3.35782" fill="white"/>
<rect x="177.747" y="136.409" width="12.0699" height="3.69636" transform="rotate(75.4328 177.747 136.409)" fill="white"/>
<defs>
<linearGradient id="paint0_linear_202_29" x1="30.9692" y1="89.7541" x2="146.536" y2="127.001" gradientUnits="userSpaceOnUse">
<stop offset="0.0516149" stop-color="#C327BC"/>
<stop offset="0.555208" stop-color="#333CF0"/>
<stop offset="1" stop-color="#00FAFE"/>
</linearGradient>
<linearGradient id="paint1_linear_202_29" x1="61.3403" y1="60.9309" x2="117.866" y2="67.0987" gradientUnits="userSpaceOnUse">
<stop offset="0.0516149" stop-color="#C327BC"/>
<stop offset="0.555208" stop-color="#333CF0"/>
<stop offset="1" stop-color="#00FAFE"/>
</linearGradient>
<linearGradient id="paint2_linear_202_29" x1="93.3637" y1="142.459" x2="116.601" y2="145.194" gradientUnits="userSpaceOnUse">
<stop offset="0.0516149" stop-color="#C327BC"/>
<stop offset="0.555208" stop-color="#333CF0"/>
<stop offset="1" stop-color="#00FAFE"/>
</linearGradient>
<linearGradient id="paint3_linear_202_29" x1="168.797" y1="142.988" x2="192.034" y2="145.722" gradientUnits="userSpaceOnUse">
<stop offset="0.0516149" stop-color="#C327BC"/>
<stop offset="0.555208" stop-color="#333CF0"/>
<stop offset="1" stop-color="#00FAFE"/>
</linearGradient>
</defs>
</svg>
