<svg width="222" height="222" viewBox="0 0 222 222" fill="none" xmlns="http://www.w3.org/2000/svg">
<path d="M127.802 171.062V51.2747H86.8491V87.5654H82.7981V46.9859H127.855V33.7874C128.942 34.1933 129.68 34.4393 130.397 34.7427C139.819 38.7404 149.229 42.7668 158.672 46.7152C159.976 47.2606 160.538 47.8633 160.538 49.3763C160.493 90.5093 160.501 131.642 160.509 172.78C160.509 173.829 160.542 174.723 159.279 175.252C149.139 179.488 139.032 183.789 128.909 188.061C128.728 188.135 128.515 188.131 128.04 188.213V175.297H82.6669C82.6669 173.842 82.6669 172.689 82.6669 171.533C82.6669 160.668 82.7079 149.806 82.6382 138.941C82.6259 137.206 83.0728 135.911 84.5202 134.984C86.2627 135.919 86.8532 137.284 86.8327 139.31C86.7261 149.216 86.8245 159.126 86.7507 169.032C86.7384 170.676 87.2468 171.07 88.8377 171.115C92.2859 171.209 95.7301 171.578 99.1742 171.828C99.7852 171.873 100.429 171.992 101.011 171.869C108.646 170.213 116.375 171.443 124.05 171.078C125.26 171.021 126.473 171.07 127.794 171.07L127.802 171.062Z" fill="url(#paint0_linear_202_13)"/>
<path d="M84.1334 99.5377C81.0501 99.5377 78.1881 99.4721 75.3385 99.591C74.7112 99.6156 74.0182 100.206 73.5139 100.698C71.3531 102.785 69.2825 104.97 67.1135 107.045C64.8051 109.251 62.0867 109.345 60.2252 107.39C58.3104 105.372 58.4908 102.814 60.7664 100.514C63.7924 97.4548 66.8101 94.3837 69.918 91.4111C70.5249 90.8289 71.5335 90.3901 72.37 90.3696C76.6711 90.263 80.9762 90.2835 85.2773 90.3286C86.2122 90.3368 87.1757 90.5337 88.0737 90.8084C92.2436 92.0958 96.3847 93.4817 100.567 94.7363C101.899 95.1382 102.785 95.8024 103.421 97.0653C105.286 100.788 107.299 104.433 109.169 108.152C109.678 109.165 110.301 109.497 111.396 109.468C113.991 109.399 116.586 109.415 119.182 109.456C121.806 109.497 123.893 111.482 123.905 113.864C123.918 116.467 121.945 118.444 119.178 118.472C114.667 118.513 110.157 118.444 105.651 118.522C104.483 118.542 103.982 118.034 103.515 117.086C102.137 114.29 100.674 111.539 98.9597 108.218C97.8075 112.326 96.8071 115.885 95.8107 119.444C95.7574 119.641 95.741 119.85 95.6918 120.047C95.0891 122.478 93.5433 125.184 94.146 127.263C94.757 129.371 97.3114 131.126 99.3451 132.561C103.97 135.82 105.565 139.961 105.081 145.628C104.54 151.934 104.95 158.326 104.938 164.677C104.938 166.74 103.978 168.228 102.092 169.011C100.358 169.733 98.5578 169.495 97.3975 168.072C96.5652 167.051 95.9378 165.551 95.9091 164.247C95.7615 157.555 95.7902 150.856 95.8763 144.164C95.8968 142.524 95.4663 141.388 94.2117 140.285C91.2882 137.719 88.5247 134.971 85.6874 132.302C85.2527 131.892 84.7771 131.527 84.1785 131.023C81.1567 134.717 78.1389 138.231 75.3385 141.909C73.9731 143.701 72.5176 144.435 70.2174 144.39C62.2261 144.234 54.2307 144.349 46.2395 144.308C43.9065 144.295 42.1434 142.745 41.7457 140.585C41.3889 138.641 42.4468 136.517 44.3452 135.718C45.1283 135.39 46.0632 135.308 46.9283 135.304C53.6936 135.271 60.4548 135.336 67.216 135.226C68.1386 135.209 69.2948 134.639 69.9221 133.942C72.2018 131.408 74.3175 128.723 76.4578 126.062C76.872 125.545 77.2574 124.934 77.4337 124.303C79.6314 116.422 81.784 108.529 83.9448 100.641C84.0145 100.386 84.0309 100.112 84.1211 99.5295L84.1334 99.5377Z" fill="white"/>
<path d="M91.6458 80.508C91.6458 75.2024 95.9961 70.9505 101.359 71.0079C106.689 71.0653 110.921 75.3869 110.884 80.7335C110.847 85.8875 106.517 90.2214 101.339 90.2911C95.996 90.3649 91.6458 85.9736 91.6499 80.508H91.6458Z" fill="white"/>
<defs>
<linearGradient id="paint0_linear_202_13" x1="82.6379" y1="41.758" x2="164.892" y2="46.6407" gradientUnits="userSpaceOnUse">
<stop offset="0.0516149" stop-color="#C327BC"/>
<stop offset="0.555208" stop-color="#333CF0"/>
<stop offset="1" stop-color="#00FAFE"/>
</linearGradient>
</defs>
</svg>
