<svg width="740" height="88" viewBox="0 0 740 88" fill="none" xmlns="http://www.w3.org/2000/svg">
<path fill-rule="evenodd" clip-rule="evenodd" d="M833.202 0.229001L793.338 0.228149L847.519 87.8868H888.973L833.202 0.229001ZM55.8288 0.229368L95.6932 0.228516L41.5119 87.8871H0.0585938L55.8288 0.229368ZM191.34 0.228149L151.475 0.229001L108.672 87.8868H150.125L191.34 0.228149ZM737.556 0.229001L697.691 0.228149L738.906 87.8868H780.359L737.556 0.229001ZM286.98 0.228149L247.116 0.229001L221.305 87.8868H262.758L286.98 0.228149ZM641.915 0.229001L602.051 0.228149L626.273 87.8868H667.727L641.915 0.229001ZM376.19 0.228149L336.325 0.229001L321.738 87.8868H363.192L376.19 0.228149ZM552.706 0.229001L512.841 0.228149L525.84 87.8868H567.293L552.706 0.229001ZM467.532 0.228149L427.667 0.229001L421.496 87.8868H462.949L467.532 0.228149Z" fill="url(#paint0_linear_0_11)"/>
<defs>
<linearGradient id="paint0_linear_0_11" x1="687.645" y1="36.1781" x2="484.831" y2="-235.441" gradientUnits="userSpaceOnUse">
<stop stop-color="#270C62"/>
<stop offset="1" stop-color="#190643" stop-opacity="0.28"/>
</linearGradient>
</defs>
</svg>
