<svg width="211" height="263" viewBox="0 0 211 263" fill="none" xmlns="http://www.w3.org/2000/svg">
<path d="M95.2031 87.2486V44.2135C95.2031 34.5301 103.053 26.6802 112.736 26.6802H294.453" stroke="url(#paint0_linear_20_3)" stroke-width="5.84442"/>
<rect x="66.2695" y="72.2389" width="59.3248" height="134.666" rx="7.51426" fill="url(#paint1_linear_20_3)"/>
<rect x="63.7143" y="75.3222" width="58.4899" height="133.831" rx="7.0968" fill="#190642" stroke="url(#paint2_linear_20_3)" stroke-width="0.834917"/>
<circle cx="92.9566" cy="111.399" r="20.0152" fill="url(#paint3_linear_20_3)"/>
<circle cx="92.9566" cy="169.257" r="20.0152" fill="url(#paint4_linear_20_3)"/>
<circle cx="92.9599" cy="110.02" r="17.3662" fill="#D43A38"/>
<circle cx="92.9599" cy="167.878" r="17.3662" fill="#83BE0A"/>
<path fill-rule="evenodd" clip-rule="evenodd" d="M113.459 110.02C113.533 109.31 113.571 108.59 113.571 107.86C113.571 96.4767 104.343 87.2485 92.9594 87.2485C81.5759 87.2485 72.3477 96.4767 72.3477 107.86C72.3477 108.59 72.3855 109.31 72.4595 110.02C73.5391 99.6517 82.3053 91.5683 92.9594 91.5683C103.614 91.5683 112.38 99.6517 113.459 110.02Z" fill="#140730"/>
<path fill-rule="evenodd" clip-rule="evenodd" d="M113.459 167.878C113.533 167.168 113.571 166.448 113.571 165.718C113.571 154.335 104.343 145.107 92.9594 145.107C81.5759 145.107 72.3477 154.335 72.3477 165.718C72.3477 166.448 72.3855 167.168 72.4595 167.878C73.5392 157.51 82.3053 149.426 92.9594 149.426C103.614 149.426 112.38 157.51 113.459 167.878Z" fill="#140730"/>
<path d="M87.2094 110.02C87.2094 115.035 88.7969 119.1 85.3919 119.1C81.9869 119.1 79.2266 115.035 79.2266 110.02C79.2266 105.005 81.9869 100.94 85.3919 100.94C88.7969 100.94 87.2094 105.005 87.2094 110.02Z" fill="white" fill-opacity="0.36"/>
<rect x="117.062" y="50.4749" width="49.581" height="93.9375" transform="rotate(-90 117.062 50.4749)" fill="url(#paint5_linear_20_3)"/>
<path d="M95.4361 164.985C95.9928 165.484 96.5968 165.94 97.0857 166.499C97.3446 166.794 97.4452 167.257 97.5397 167.661C97.6137 167.986 97.5685 168.339 97.5787 168.68C97.5993 169.315 98.0595 169.759 98.6696 169.74C99.2612 169.722 99.6968 169.219 99.6577 168.586C99.6166 167.92 99.5756 167.253 99.5262 166.587C99.479 165.936 99.2489 165.377 98.7312 164.95C97.8335 164.206 96.9563 163.436 96.0483 162.704C95.1403 161.971 94.1193 161.519 92.9175 161.546C92.0752 161.564 91.4014 161.874 91.0562 162.657C90.6331 163.616 90.216 164.586 89.9099 165.587C89.6326 166.499 89.1519 167.15 88.2685 167.518C87.7591 167.729 87.2701 167.994 86.773 168.241C86.2327 168.508 85.98 169.081 86.1937 169.537C86.4607 170.108 86.9764 170.322 87.5721 170.049C88.513 169.619 89.4621 169.196 90.3557 168.68C90.746 168.454 91.0254 168.017 91.3213 167.647C91.4712 167.458 91.5452 167.207 91.7465 167C91.8944 167.686 91.9725 168.399 92.2087 169.054C92.5929 170.118 92.3094 170.944 91.6684 171.83C90.4215 173.557 89.2916 175.369 88.1103 177.144C87.7652 177.662 87.6871 178.202 88.0015 178.751C88.55 179.712 89.8319 179.729 90.4708 178.779C91.1857 177.717 91.878 176.643 92.5806 175.573C93.7577 173.777 94.943 171.988 96.1017 170.182C96.229 169.983 96.2845 169.673 96.2393 169.438C95.9743 168.072 95.6703 166.712 95.3806 165.35C95.3601 165.256 95.3539 165.157 95.3395 165.063C95.3724 165.036 95.4032 165.011 95.4361 164.985Z" fill="white"/>
<path d="M96.6426 171.371C96.127 172.144 95.6935 172.857 95.1963 173.52C94.8409 173.995 94.7958 174.426 94.9498 175.001C95.182 175.86 95.5333 176.614 96.1311 177.276C96.6077 177.802 97.0268 178.379 97.4746 178.931C97.98 179.554 98.7339 179.659 99.3153 179.194C99.8925 178.734 99.9603 177.958 99.4673 177.339C99.0523 176.815 98.6558 176.275 98.2059 175.782C97.7684 175.301 97.5239 174.757 97.378 174.132C97.1685 173.239 96.9055 172.358 96.6405 171.371H96.6426Z" fill="white"/>
<path d="M89.4447 158.583C89.4365 159.841 90.4555 160.872 91.7107 160.876C92.9905 160.88 94.03 159.865 94.0505 158.596C94.069 157.345 93.0152 156.285 91.7435 156.274C90.4698 156.264 89.455 157.285 89.4447 158.583Z" fill="white"/>
<g filter="url(#filter0_f_20_3)">
<circle cx="94.0508" cy="169.257" r="29.4492" fill="#83BE0A"/>
</g>
<g filter="url(#filter1_f_20_3)">
<circle cx="94.0494" cy="169.257" r="15.0104" fill="#83BE0A"/>
</g>
<defs>
<filter id="filter0_f_20_3" x="0.601562" y="75.8082" width="186.898" height="186.898" filterUnits="userSpaceOnUse" color-interpolation-filters="sRGB">
<feFlood flood-opacity="0" result="BackgroundImageFix"/>
<feBlend mode="normal" in="SourceGraphic" in2="BackgroundImageFix" result="shape"/>
<feGaussianBlur stdDeviation="32" result="effect1_foregroundBlur_20_3"/>
</filter>
<filter id="filter1_f_20_3" x="15.0391" y="90.2469" width="158.021" height="158.021" filterUnits="userSpaceOnUse" color-interpolation-filters="sRGB">
<feFlood flood-opacity="0" result="BackgroundImageFix"/>
<feBlend mode="normal" in="SourceGraphic" in2="BackgroundImageFix" result="shape"/>
<feGaussianBlur stdDeviation="32" result="effect1_foregroundBlur_20_3"/>
</filter>
<linearGradient id="paint0_linear_20_3" x1="95.2031" y1="29.8064" x2="278.816" y2="100.885" gradientUnits="userSpaceOnUse">
<stop offset="0.0516149" stop-color="#C327BC"/>
<stop offset="0.555208" stop-color="#333CF0"/>
<stop offset="1" stop-color="#00FAFE"/>
</linearGradient>
<linearGradient id="paint1_linear_20_3" x1="66.2695" y1="79.1897" x2="128.962" y2="82.4396" gradientUnits="userSpaceOnUse">
<stop offset="0.0516149" stop-color="#C327BC"/>
<stop offset="0.555208" stop-color="#333CF0"/>
<stop offset="1" stop-color="#00FAFE"/>
</linearGradient>
<linearGradient id="paint2_linear_20_3" x1="63.2969" y1="81.8556" x2="125.99" y2="85.1055" gradientUnits="userSpaceOnUse">
<stop offset="0.0516149" stop-color="#C327BC"/>
<stop offset="0.555208" stop-color="#333CF0"/>
<stop offset="1" stop-color="#00FAFE"/>
</linearGradient>
<linearGradient id="paint3_linear_20_3" x1="72.9414" y1="93.4504" x2="114.779" y2="98.3736" gradientUnits="userSpaceOnUse">
<stop offset="0.0516149" stop-color="#C327BC"/>
<stop offset="0.555208" stop-color="#333CF0"/>
<stop offset="1" stop-color="#00FAFE"/>
</linearGradient>
<linearGradient id="paint4_linear_20_3" x1="72.9414" y1="151.308" x2="114.779" y2="156.232" gradientUnits="userSpaceOnUse">
<stop offset="0.0516149" stop-color="#C327BC"/>
<stop offset="0.555208" stop-color="#333CF0"/>
<stop offset="1" stop-color="#00FAFE"/>
</linearGradient>
<linearGradient id="paint5_linear_20_3" x1="141.853" y1="50.4749" x2="141.853" y2="144.412" gradientUnits="userSpaceOnUse">
<stop stop-color="#140730" stop-opacity="0"/>
<stop offset="1" stop-color="#140730"/>
</linearGradient>
</defs>
</svg>
