<svg width="222" height="222" viewBox="0 0 222 222" fill="none" xmlns="http://www.w3.org/2000/svg">
<path d="M100.385 98.4403C97.9684 100.607 95.3471 102.586 93.2251 105.011C92.1017 106.295 91.6648 108.301 91.2547 110.058C90.9337 111.467 91.1299 113 91.0853 114.48C90.9961 117.235 88.9989 119.161 86.3509 119.081C83.7831 119.001 81.8929 116.816 82.0623 114.07C82.2406 111.181 82.4189 108.284 82.6329 105.395C82.838 102.568 83.8366 100.143 86.0834 98.2887C89.9797 95.0611 93.7868 91.7176 97.7277 88.5436C101.669 85.3605 106.1 83.399 111.316 83.5149C114.971 83.5952 117.896 84.9415 119.394 88.3385C121.23 92.5023 123.04 96.7106 124.369 101.053C125.572 105.011 127.659 107.838 131.493 109.434C133.704 110.352 135.826 111.502 137.983 112.572C140.328 113.731 141.425 116.219 140.498 118.198C139.339 120.677 137.101 121.604 134.515 120.418C130.432 118.555 126.312 116.718 122.434 114.48C120.74 113.499 119.527 111.6 118.243 109.995C117.593 109.175 117.272 108.087 116.398 107.187C115.756 110.165 115.417 113.259 114.392 116.103C112.724 120.721 113.955 124.306 116.737 128.148C122.149 135.647 127.052 143.511 132.179 151.214C133.677 153.461 134.016 155.806 132.652 158.186C130.271 162.359 124.707 162.43 121.935 158.311C118.832 153.702 115.827 149.039 112.778 144.393C107.669 136.601 102.524 128.835 97.4959 120.998C96.9431 120.133 96.7024 118.787 96.8985 117.77C98.0487 111.841 99.3682 105.939 100.625 100.027C100.715 99.6172 100.741 99.1892 100.804 98.7791C100.661 98.6632 100.527 98.5562 100.385 98.4403Z" fill="white"/>
<path d="M95.1503 126.16C97.3883 129.513 99.2695 132.606 101.427 135.486C102.97 137.546 103.166 139.418 102.497 141.915C101.49 145.642 99.965 148.914 97.3704 151.785C95.3019 154.067 93.4831 156.573 91.5394 158.971C89.346 161.672 86.0739 162.127 83.5506 160.112C81.0452 158.115 80.751 154.745 82.8909 152.061C84.6919 149.787 86.4127 147.443 88.3653 145.303C90.2644 143.216 91.3254 140.854 91.9584 138.143C92.8678 134.265 94.0091 130.44 95.1593 126.16H95.1503Z" fill="white"/>
<path d="M126.391 70.6581C126.427 76.1147 122.005 80.5905 116.557 80.6083C111.002 80.6261 106.491 76.2216 106.402 70.7116C106.321 65.2817 110.895 60.6811 116.414 60.6365C121.942 60.5919 126.347 65.0232 126.391 70.6581Z" fill="white"/>
<path fill-rule="evenodd" clip-rule="evenodd" d="M32.7702 144.016L32.7747 144.011L32.7765 144.01C35.2863 141.559 37.7976 139.108 40.3092 136.658L40.3096 136.658L40.31 136.657L40.3104 136.657L40.3106 136.657C46.1855 130.925 52.0613 125.192 57.9196 119.446C58.9003 118.483 59.89 117.984 61.3166 118.046C63.0811 118.128 64.85 118.112 66.7434 118.096C67.548 118.089 68.3751 118.082 69.234 118.082C68.9483 118.453 68.6849 118.801 68.4347 119.131L68.4347 119.131L68.4346 119.132L68.4345 119.132C67.9273 119.802 67.4737 120.401 66.9961 120.98C56.2255 134.077 45.4461 147.175 34.6399 160.255C34.2476 160.727 33.6057 161.298 33.0707 161.307C28.5009 161.363 23.9366 161.358 19.1171 161.354H19.1169H19.1167H19.1156H19.1134H19.1111H19.1088C17.7719 161.353 16.4154 161.351 15.0337 161.351L15.0426 161.342C21.2182 155.3 26.993 149.659 32.7676 144.018L32.7702 144.016ZM206.966 161.351C205.743 161.351 204.534 161.352 203.334 161.353C198.587 161.356 194.003 161.358 189.42 161.316C188.903 161.316 188.225 160.977 187.886 160.567C176.438 146.729 165.017 132.856 153.604 118.991C153.513 118.877 153.447 118.737 153.348 118.528L153.348 118.527L153.348 118.527L153.347 118.526L153.347 118.524C153.292 118.407 153.226 118.268 153.141 118.1C153.896 118.1 154.64 118.098 155.376 118.097C157.796 118.092 160.127 118.088 162.458 118.135C162.868 118.135 163.34 118.537 163.67 118.867C177.909 132.74 192.13 146.622 206.351 160.513C206.454 160.616 206.539 160.741 206.674 160.94C206.749 161.051 206.839 161.185 206.957 161.351H206.966ZM142.239 122.897C138.896 125.491 135.481 125.732 131.451 123.539H131.442C132.036 125.184 132.627 126.82 133.216 128.447L133.254 128.553C137.184 139.43 140.981 149.937 144.825 160.424C144.985 160.861 145.805 161.325 146.323 161.325C151.372 161.381 156.421 161.364 161.471 161.348L162.987 161.343C163.124 161.343 163.261 161.295 163.444 161.231C163.534 161.199 163.635 161.164 163.753 161.129C161.661 157.41 159.575 153.702 157.493 150L157.447 149.919C152.375 140.903 147.323 131.922 142.239 122.897ZM91.4427 121.746C90.6557 123.926 89.8797 126.052 89.1164 128.145C87.4064 132.831 85.7597 137.345 84.194 141.888C83.3113 144.447 82.0987 146.72 80.2799 148.708C77.7388 151.49 76.7491 154.673 77.6764 158.436C78.1668 160.415 77.3198 161.351 75.3672 161.351H58.3554C64.1474 151.05 69.8558 140.91 75.5766 130.749L75.59 130.725C77.3414 127.614 79.094 124.501 80.8505 121.381C84.1851 123.36 87.5107 124.011 91.4338 121.746H91.4427ZM106.653 142.56C106.65 142.556 106.648 142.552 106.645 142.548L106.654 142.557C106.654 142.558 106.653 142.559 106.653 142.56ZM106.653 142.56C106.383 143.357 106.163 144.147 105.95 144.915C105.488 146.578 105.056 148.136 104.202 149.422C102.883 151.41 102.499 153.434 102.294 155.636C102.179 156.843 102.086 158.054 101.993 159.256C101.943 159.91 101.893 160.562 101.839 161.209H118.896C115.722 156.367 112.638 151.671 109.51 146.91C108.563 145.468 107.612 144.02 106.653 142.56Z" fill="url(#paint0_linear_202_2)"/>
<defs>
<linearGradient id="paint0_linear_202_2" x1="15.0337" y1="120.277" x2="174.946" y2="203.645" gradientUnits="userSpaceOnUse">
<stop offset="0.0516149" stop-color="#C327BC"/>
<stop offset="0.555208" stop-color="#333CF0"/>
<stop offset="1" stop-color="#00FAFE"/>
</linearGradient>
</defs>
</svg>
